<?xml version="1.0" encoding="utf-8"?>
<!-- Generator: Adobe Illustrator 22.0.0, SVG Export Plug-In . SVG Version: 6.00 Build 0)  -->
<svg version="1.1" id="Capa_1" xmlns="http://www.w3.org/2000/svg" xmlns:xlink="http://www.w3.org/1999/xlink" x="0px" y="0px"
	 viewBox="0 0 519.4 430.7" style="enable-background:new 0 0 519.4 430.7;" xml:space="preserve">
<path d="M512.5,59.9h-37.6c-0.1-32.8-22.6-59.4-50.2-59.6v0H140.9c-36.7,0-67.5,25.6-75.1,59.7H0.5v21H64v349.3h310.4h5.4h39.4
	l-0.4-49.2h56V80.9h37.6V59.9z M453.9,59.9h-58.5v-0.7c0-20.9,12.9-37.9,28.8-37.9C440.6,21.2,453.8,38.6,453.9,59.9z M140.9,21.2
	h245.3c-7.3,10.3-11.7,23.5-11.7,37.9v259.4H85V76.3C85,46,110.1,21.2,140.9,21.2z M85,409.2v-69.7h289.4v69.7H85z M453.9,360h-56.2
	l0.4,49.2h-2.7V80.9h58.5V360z"/>
</svg>
