<?xml version="1.0" encoding="utf-8"?>
<!-- Generator: Adobe Illustrator 22.0.0, SVG Export Plug-In . SVG Version: 6.00 Build 0)  -->
<svg version="1.1" id="Слой_1" xmlns="http://www.w3.org/2000/svg" xmlns:xlink="http://www.w3.org/1999/xlink" x="0px" y="0px"
	 viewBox="0 0 512 512" style="enable-background:new 0 0 512 512;" xml:space="preserve">
<path d="M482.1,238.9H201.3c0,0-60.8,0.2-89.2,0.2V165c0-2.7,2.2-4.9,4.9-4.9h55.2c3.9,0,7-3.1,7-7s-3.1-7-7-7H117
	c-10.4,0-18.9,8.5-18.9,18.9v74h0l0,0v27.1c0,0.6,0.1,1.3,0.3,1.9l0,5c-0.3,5.7-0.2,17.1-0.2,17.1v204.8c0,9.4,7.6,17.1,17.1,17.1
	h136.5c9.4,0,17.1-7.6,17.1-17.1v-42.7c0-14.1,11.5-25.6,25.6-25.6h68.3c61.2-0.1,110.9-49.7,110.9-110.9v-25.6h8.5
	c14.1,0,25.6-11.5,25.6-25.6C507.8,250.4,496.3,238.9,482.1,238.9z M456.5,315.7c-0.1,51.8-42.1,93.8-93.9,93.9h-68.3
	c-23.6,0-42.6,19.1-42.7,42.7V495H115.2V290.1h341.3V315.7z M482.1,273.1H115.2V256h366.9c4.7,0,8.5,3.8,8.5,8.5
	S486.8,273.1,482.1,273.1z"/>
</svg>
