<?xml version="1.0" encoding="utf-8"?>
<!-- Generator: Adobe Illustrator 22.0.0, SVG Export Plug-In . SVG Version: 6.00 Build 0)  -->
<svg version="1.1" id="facebook" xmlns="http://www.w3.org/2000/svg" xmlns:xlink="http://www.w3.org/1999/xlink" x="0px" y="0px"
	 viewBox="0 0 322 541" style="enable-background:new 0 0 322 541;" xml:space="preserve">
<path d="M222,140.1c0,0,2.6-2.3,14.2-2.3h42.1c15.6,0,28.3-12.7,28.3-28.3V35.9c0-15.6-12.7-28.3-28.3-28.3l-62.5-0.1
	c-39.6,0-73.3,13.1-97.4,38c-24,24.7-36.7,59-36.7,99.2v36.2H37.4c-15.6,0-28.3,12.7-28.3,28.3v79.2c0,15.6,12.7,28.3,28.3,28.3
	h44.3v181.5c0,15.6,12.7,28.3,28.3,28.3h82c15.5,0,28.3-12.8,28.5-28.5V316.6h55c15.6,0,28.3-12.7,28.3-28.3v-79.2
	c0-10.3-5.6-19.7-14.6-24.8c-4.3-2.3-9.1-3.5-14-3.5h-54.8v-27.9C220.4,142.1,221.9,140.1,222,140.1z M194.1,115.6
	c-9.6,10.9-10.9,25-10.9,37.4v44.7c0,11.1,9,20.1,20.1,20.1h63.3v61.9h-63.2c-11.1,0-20.1,9-20.1,20.1v189.7h-64.6V299.8
	c0-11.1-9-20.1-20.1-20.1H46v-61.9h52.6c11.1,0,20.1-9,20.1-20.1v-53.1c0-61.7,37.2-100.1,97.1-100.1l53.6,0.1v56.3H236
	C223.6,100.9,205.7,102.4,194.1,115.6z"/>
</svg>
