<?xml version="1.0" encoding="utf-8"?>
<!-- Generator: Adobe Illustrator 22.0.0, SVG Export Plug-In . SVG Version: 6.00 Build 0)  -->
<svg version="1.1" id="Capa_1" xmlns="http://www.w3.org/2000/svg" xmlns:xlink="http://www.w3.org/1999/xlink" x="0px" y="0px"
	 viewBox="0 0 512 512" style="enable-background:new 0 0 512 512;" xml:space="preserve">
<g>
	<path d="M428,449.2h-7.6V58.5v-5.6V20.6h7.6c13.2,0,13.2-20.6,0-20.6H84c-13.2,0-13.2,20.6,0,20.6h7.6v428.6H84
		c-5.7,0-10.3,4.6-10.3,10.3v42.2c0,5.7,4.6,10.3,10.3,10.3h344c5.7,0,10.3-4.6,10.3-10.3v-42.2C438.3,453.8,433.7,449.2,428,449.2z
		 M286,20.6h113.8v35.3v2.6v390.7H286V20.6z M112.1,20.6h153.3v428.7H112.2V139.7l28.3-28.3c6.3-6.3,16.3-8.2,24.5-4.6
		c-8,15-5.7,34.2,7,46.8c5.4,5.4,13,13.8,20.6,6.1l41.7-41.7c7.6-7.6-0.7-15.3-6.1-20.6c-13.2-13.2-33.4-15.2-48.6-6
		c-16.7-11-39.5-8.7-53.7,5.5l-13.8,13.8V20.6z M181,125.5c0-10.5,8.7-19.2,19.2-19.2c4.4,0,8.8,1.5,12.4,4.5l-27.1,27.1
		C182.6,134.4,181,130.1,181,125.5z M417.7,491.4H94.3v-21.6h323.4V491.4z"/>
	<path d="M307.7,218.3v33.1c0,13.2,20.6,13.2,20.6,0v-33.1C328.3,205.1,307.7,205.1,307.7,218.3z"/>
</g>
</svg>
