<?xml version="1.0" encoding="utf-8"?>
<!-- Generator: Adobe Illustrator 22.0.0, SVG Export Plug-In . SVG Version: 6.00 Build 0)  -->
<svg version="1.1" id="Capa_1" xmlns="http://www.w3.org/2000/svg" xmlns:xlink="http://www.w3.org/1999/xlink" x="0px" y="0px"
	 viewBox="0 0 698.5 592" style="enable-background:new 0 0 698.5 592;" xml:space="preserve">
<style type="text/css">
	.st0{stroke:#000000;stroke-width:2;stroke-miterlimit:10;}
</style>
<g>
	<g>
		<path class="st0" d="M365.7,297v-16.4v-49.2v-94.1c0-20.3,16.5-36.9,36.9-36.9s36.9,16.5,36.9,36.9v4.1h-16.4v16.4h49.2v-16.4
			h-16.4v-4.1c0-29.4-23.9-53.3-53.3-53.3s-53.3,23.9-53.3,53.3v94.2v49.2V297H103.5v16.4h24.8c4.3,104.6,90.8,188.5,196.4,188.5
			h65.5c105.7,0,192.1-83.8,196.4-188.5h24.9V297H365.7z M390.3,485.5h-65.5c-96.6,0-175.8-76.5-180.1-172.1h425.7
			C566,409,486.9,485.5,390.3,485.5z"/>
	</g>
</g>
</svg>
