<?xml version="1.0" encoding="utf-8"?>
<!-- Generator: Adobe Illustrator 22.0.0, SVG Export Plug-In . SVG Version: 6.00 Build 0)  -->
<svg version="1.1" id="Слой_1" xmlns="http://www.w3.org/2000/svg" xmlns:xlink="http://www.w3.org/1999/xlink" x="0px" y="0px"
	 viewBox="0 0 512 512" style="enable-background:new 0 0 512 512;" xml:space="preserve">
<style type="text/css">
	.st0{stroke:#000000;stroke-width:3;stroke-miterlimit:10;}
</style>
<path class="st0" d="M376,64h-48.6c-4-27.5-27.5-48-55.4-48h-32c-30.9,0-56,25.1-56,56v81.4c0,4.4,3.6,7.5,8,7.5v3.3l-53,42.4
	c-17.1,13.6-27.1,34.3-27,56.2V456c0,22.1,17.9,40,40,40h208c22.1,0,40-17.9,40-40V262.8c0.1-21.9-9.9-42.6-27-56.2l-53-42.4v-3.1
	c4.4,0,8-3.7,8-8.2V112h40v8c0,4.4,3.6,8,8,8h32c4.4,0,8-3.6,8-8v-16C416,81.9,398.1,64,376,64z M200,72c0-22.1,17.9-40,40-40h32
	c22.1,0,40,17.9,40,40v79.6l-112-0.3V72z M128,280h256v120H128V280z M360,480H152c-13.3,0-24-10.7-24-24v-40h256v40
	C384,469.3,373.3,480,360,480z M384,262.8v1.2H128v-1.2c0-17,7.7-33.1,21-43.7l59-50h95.2l59.8,50C376.3,229.6,384,245.7,384,262.8z
	 M400,112h-16c0-8.8-7.2-16-16-16h-40V80h48c13.3,0,24,10.7,24,24V112z"/>
</svg>
