<?xml version="1.0" encoding="utf-8"?>
<!-- Generator: Adobe Illustrator 22.0.0, SVG Export Plug-In . SVG Version: 6.00 Build 0)  -->
<svg version="1.1" id="Слой_1" xmlns="http://www.w3.org/2000/svg" xmlns:xlink="http://www.w3.org/1999/xlink" x="0px" y="0px"
	 viewBox="0 0 511 511" style="enable-background:new 0 0 511 511;" xml:space="preserve">
<path d="M111.7,367.2c0,79.3,64.5,143.8,143.8,143.8s143.8-64.5,143.8-143.8c0-0.2-0.1-0.3-0.1-0.5s0.1-0.3,0-0.5l-31.8-263.4v-0.1
	c-1.7-13.8-11.3-23-23.9-23l0,0l0,0h-63.9V55.9h16c4.4,0,8-3.6,8-8s-3.6-8-8-8h-16V24c0-0.4-0.2-0.8-0.2-1.2
	C278.6,10.1,268.2,0,255.4,0c-13.2,0-24,10.8-24,24c0,0.2,0.1,0.4,0.1,0.6v22.7c0,0.2-0.1,0.4-0.1,0.6s0.1,0.4,0.1,0.6v31.2h-63.9
	c-12.6,0-22.2,9.3-23.9,23l-27.4,226.6c0,0.1,0,0.1,0,0.2l-4.3,36C111.9,366.1,111.7,366.6,111.7,367.2z M255.4,495
	c-70.1,0-127.1-56.7-127.7-126.6c0-0.1,0.1-0.2,0.1-0.3l0.7-5.6c24.5,46.2,73,76.5,127,76.5c54.2,0,102.7-30.4,127.1-76.8l0.6,5.3
	C383,437.9,325.8,495,255.4,495z M255.4,16c4.4,0,8,3.6,8,8c0,0.2,0.1,0.4,0.1,0.6V40h-16V24c0-0.1-0.1-0.2-0.1-0.3
	C247.7,19.4,251.1,16,255.4,16z M247.6,55.9h16v23.8h-16V55.9z M159.6,104.7c0.3-2.7,1.8-9,8.1-9h71.9l0,0l0,0h31.9l0,0l0,0h71.8
	l0,0l0,0c6.2,0,7.7,6.1,8,8.9v0.1l27.1,224.7c-15.2,55.3-65.6,93.7-123.1,93.7c-57.3,0-107.6-38.3-123-93.2L159.6,104.7z"/>
<path d="M255.4,167.6c13.2,0,24-10.7,24-24c0-13.2-10.8-24-24-24c-13.2,0-24,10.8-24,24C231.5,156.9,242.2,167.6,255.4,167.6z
	 M255.4,135.7c4.4,0,8,3.6,8,8s-3.6,8-8,8s-8-3.6-8-8C247.4,139.2,251,135.7,255.4,135.7z"/>
</svg>
